<?xml version="1.0" encoding="UTF-8"?>
<svg xmlns="http://www.w3.org/2000/svg" xmlns:xlink="http://www.w3.org/1999/xlink" width="3000px" height="3000px" viewBox="0 0 3000 3000" version="1.1">
<g id="surface1">
<path style=" stroke:none;fill-rule:nonzero;fill:rgb(100%,100%,100%);fill-opacity:1;" d="M 714.0625 1391.90625 C 714.0625 1540.28125 454.25 1676.6875 257.0625 1676.6875 C 59.875 1676.6875 0 1540.28125 0 1391.90625 C 0 1243.5625 159.84375 1123.28125 357.03125 1123.28125 C 554.21875 1123.28125 714.0625 1243.5625 714.0625 1391.90625 Z M 714.0625 1391.90625 "/>
<path style=" stroke:none;fill-rule:nonzero;fill:rgb(18.823529%,23.529412%,27.843137%);fill-opacity:1;" d="M 355.3125 1812.5 C 329.78125 1812.5 304.84375 1809.4375 280.46875 1803.34375 C 256.5 1797.25 234.78125 1787.53125 215.34375 1774.21875 C 195.9375 1761.25 180.5 1744.5 169.09375 1723.9375 C 157.65625 1703.375 151.9375 1678.625 151.9375 1649.6875 C 151.9375 1618.4375 158.21875 1589.875 170.8125 1564 C 183.375 1537.71875 201.0625 1514.5 223.9375 1494.3125 C 246.78125 1474.125 273.8125 1457.375 305.03125 1444.03125 C 336.65625 1430.3125 371.125 1420.625 408.4375 1414.90625 L 427.28125 1490.3125 C 393.78125 1496.40625 364.65625 1504.40625 339.875 1514.28125 C 315.5 1524.1875 295.34375 1535.8125 279.34375 1549.15625 C 263.34375 1562.46875 251.34375 1576.75 243.34375 1592 C 235.71875 1607.59375 231.9375 1623.96875 231.9375 1641.125 C 231.9375 1654.8125 234.40625 1666.8125 239.34375 1677.09375 C 244.6875 1687.375 251.71875 1695.9375 260.5 1702.8125 C 269.25 1710.03125 278.96875 1715.75 289.625 1719.9375 C 300.28125 1724.5 311.3125 1727.75 322.75 1729.65625 C 334.1875 1731.5625 345.03125 1732.5 355.3125 1732.5 C 381.59375 1732.5 405.96875 1730.03125 428.4375 1725.09375 C 451.28125 1720.125 471.28125 1714.03125 488.40625 1706.8125 L 511.25 1780.5 C 502.125 1785.0625 489.15625 1789.8125 472.40625 1794.78125 C 456.03125 1799.71875 437.5625 1803.90625 417 1807.34375 C 396.8125 1810.78125 376.25 1812.5 355.3125 1812.5 Z M 241.625 1496.03125 C 228.3125 1490.6875 215.9375 1483.0625 204.5 1473.15625 C 193.46875 1463.25 184.5 1451.0625 177.65625 1436.59375 C 171.1875 1421.75 167.9375 1404.8125 167.9375 1385.78125 C 167.9375 1361.78125 174.21875 1341.03125 186.78125 1323.5 C 199.375 1305.96875 216.125 1292.46875 237.0625 1282.9375 C 258 1273.40625 280.875 1268.65625 305.625 1268.65625 C 317.8125 1268.65625 329.03125 1269.4375 339.3125 1270.9375 C 349.96875 1272.46875 360.84375 1274.75 371.875 1277.8125 L 359.3125 1353.78125 C 351.3125 1351.875 343.125 1350.34375 334.75 1349.21875 C 326.375 1348.0625 318.9375 1347.5 312.46875 1347.5 C 299.125 1347.5 287.53125 1349.40625 277.625 1353.21875 C 268.09375 1357 260.6875 1362.53125 255.34375 1369.78125 C 250.40625 1376.625 247.90625 1384.8125 247.90625 1394.34375 C 247.90625 1401.9375 250.1875 1409.1875 254.78125 1416.03125 C 259.71875 1422.90625 266 1429 273.625 1434.3125 C 281.25 1439.28125 289.625 1443.46875 298.75 1446.875 C 307.90625 1449.9375 316.84375 1451.65625 325.59375 1452.03125 Z M 241.625 1496.03125 "/>
<path style=" stroke:none;fill-rule:nonzero;fill:rgb(0%,74.509804%,97.647059%);fill-opacity:1;" d="M 1080 1095.28125 C 1080 1281.9375 816.9375 1453.53125 617.28125 1453.53125 C 417.65625 1453.53125 357.03125 1281.9375 357.03125 1095.28125 C 357.03125 908.625 518.875 757.3125 718.5 757.3125 C 918.15625 757.3125 1080 908.625 1080 1095.28125 Z M 1080 1095.28125 "/>
<path style=" stroke:none;fill-rule:nonzero;fill:rgb(100%,100%,100%);fill-opacity:1;" d="M 416 1305.0625 L 640.5 834.3125 L 724.84375 833.53125 L 956.875 1299.96875 L 877.21875 1300.71875 L 716.84375 979.53125 C 712.75 971.09375 708.65625 962.875 704.5625 954.875 C 700.46875 946.875 696.375 938.90625 692.3125 930.90625 C 688.65625 922.90625 685 914.46875 681.34375 905.5625 C 677.6875 896.6875 674.03125 886.875 670.34375 876.21875 L 691.78125 875.34375 C 687.84375 886.09375 683.9375 896.15625 680 905.5625 C 676.53125 914.96875 672.8125 923.9375 668.875 932.46875 C 664.9375 940.96875 661 949.5 657.0625 958 C 653.125 966.09375 649.1875 974.375 645.25 982.90625 L 492.3125 1304.34375 Z M 514.6875 1194.34375 L 542.8125 1124.4375 L 820.625 1121.8125 L 832.65625 1191.34375 Z M 514.6875 1194.34375 "/>
<path style=" stroke:none;fill-rule:nonzero;fill:rgb(18.823529%,23.529412%,27.843137%);fill-opacity:1;" d="M 744.128906 1771.121094 C 732.785156 1771.121094 724.691406 1767.246094 719.878906 1759.496094 C 715.035156 1751.746094 715.191406 1742.433594 720.378906 1731.496094 L 848.003906 1448.871094 C 852.160156 1439.558594 857.191406 1432.871094 863.128906 1428.871094 C 869.128906 1424.808594 876.003906 1422.746094 883.753906 1422.746094 C 891.160156 1422.746094 897.816406 1424.808594 903.753906 1428.871094 C 909.753906 1432.871094 914.816406 1439.558594 919.003906 1448.871094 L 1047.003906 1731.496094 C 1052.160156 1742.746094 1052.503906 1752.183594 1048.003906 1759.746094 C 1043.503906 1767.308594 1035.753906 1771.121094 1024.753906 1771.121094 C 1015.753906 1771.121094 1008.753906 1768.933594 1003.753906 1764.621094 C 998.753906 1760.308594 994.316406 1753.589844 990.503906 1744.496094 L 966.378906 1688.496094 L 800.128906 1688.496094 L 776.503906 1744.496094 C 772.253906 1753.839844 767.878906 1760.621094 763.378906 1764.871094 C 758.878906 1769.027344 752.441406 1771.121094 744.128906 1771.121094 Z M 882.753906 1493.746094 L 821.378906 1639.246094 L 945.128906 1639.246094 L 883.753906 1493.746094 Z M 882.753906 1493.746094 "/>
<path style=" stroke:none;fill-rule:nonzero;fill:rgb(18.823529%,23.529412%,27.843137%);fill-opacity:1;" d="M 1188.015625 1767.246094 C 1166.171875 1767.246094 1155.265625 1756.308594 1155.265625 1734.371094 L 1155.265625 1459.496094 C 1155.265625 1437.589844 1166.171875 1426.621094 1188.015625 1426.621094 L 1281.765625 1426.621094 C 1338.765625 1426.621094 1382.796875 1441.308594 1413.890625 1470.621094 C 1444.953125 1499.964844 1460.515625 1541.996094 1460.515625 1596.746094 C 1460.515625 1651.183594 1444.953125 1693.214844 1413.890625 1722.871094 C 1382.796875 1752.464844 1338.765625 1767.246094 1281.765625 1767.246094 Z M 1217.015625 1715.996094 L 1277.890625 1715.996094 C 1356.453125 1715.996094 1395.765625 1676.246094 1395.765625 1596.746094 C 1395.765625 1517.496094 1356.453125 1477.871094 1277.890625 1477.871094 L 1217.015625 1477.871094 Z M 1217.015625 1715.996094 "/>
<path style=" stroke:none;fill-rule:nonzero;fill:rgb(18.823529%,23.529412%,27.843137%);fill-opacity:1;" d="M 1611.21875 1767.246094 C 1589.375 1767.246094 1578.46875 1756.308594 1578.46875 1734.371094 L 1578.46875 1459.496094 C 1578.46875 1437.589844 1589.375 1426.621094 1611.21875 1426.621094 L 1783.71875 1426.621094 C 1800.46875 1426.621094 1808.84375 1434.683594 1808.84375 1450.746094 C 1808.84375 1467.496094 1800.46875 1475.871094 1783.71875 1475.871094 L 1637.84375 1475.871094 L 1637.84375 1569.621094 L 1773.09375 1569.621094 C 1789.84375 1569.621094 1798.21875 1577.839844 1798.21875 1594.246094 C 1798.21875 1610.683594 1789.84375 1618.871094 1773.09375 1618.871094 L 1637.84375 1618.871094 L 1637.84375 1717.996094 L 1783.71875 1717.996094 C 1800.46875 1717.996094 1808.84375 1726.214844 1808.84375 1742.621094 C 1808.84375 1759.058594 1800.46875 1767.246094 1783.71875 1767.246094 Z M 1611.21875 1767.246094 "/>
<path style=" stroke:none;fill-rule:nonzero;fill:rgb(18.823529%,23.529412%,27.843137%);fill-opacity:1;" d="M 1950.964844 1771.121094 C 1932.214844 1771.121094 1922.839844 1761.464844 1922.839844 1742.121094 L 1922.839844 1451.746094 C 1922.839844 1432.433594 1932.496094 1422.746094 1951.839844 1422.746094 C 1959.902344 1422.746094 1966.277344 1424.308594 1970.964844 1427.371094 C 1975.621094 1430.464844 1979.871094 1435.714844 1983.714844 1443.121094 L 2095.339844 1649.371094 L 2206.964844 1443.121094 C 2210.777344 1435.714844 2214.964844 1430.464844 2219.464844 1427.371094 C 2224.027344 1424.308594 2230.339844 1422.746094 2238.339844 1422.746094 C 2256.996094 1422.746094 2266.339844 1432.433594 2266.339844 1451.746094 L 2266.339844 1742.121094 C 2266.339844 1761.464844 2256.996094 1771.121094 2238.339844 1771.121094 C 2219.652344 1771.121094 2210.339844 1761.464844 2210.339844 1742.121094 L 2210.339844 1537.746094 L 2119.464844 1703.496094 C 2116.277344 1708.996094 2112.902344 1713.058594 2109.339844 1715.621094 C 2105.839844 1718.121094 2100.996094 1719.371094 2094.839844 1719.371094 C 2088.746094 1719.371094 2083.746094 1718.058594 2079.839844 1715.371094 C 2075.996094 1712.621094 2072.621094 1708.683594 2069.714844 1703.496094 L 1978.964844 1538.746094 L 1978.964844 1742.121094 C 1978.964844 1761.464844 1969.621094 1771.121094 1950.964844 1771.121094 Z M 1950.964844 1771.121094 "/>
<path style=" stroke:none;fill-rule:nonzero;fill:rgb(0%,74.509804%,97.647059%);fill-opacity:1;" d="M 757.253906 1931.378906 L 722.503906 1931.378906 L 722.503906 1948.503906 L 753.628906 1948.503906 L 753.628906 1958.128906 L 722.503906 1958.128906 L 722.503906 1975.628906 L 758.378906 1975.628906 L 758.378906 1985.253906 L 711.878906 1985.253906 L 711.878906 1921.753906 L 757.253906 1921.753906 Z M 757.253906 1931.378906 "/>
<path style=" stroke:none;fill-rule:nonzero;fill:rgb(0%,74.509804%,97.647059%);fill-opacity:1;" d="M 842.167969 1985.253906 L 831.667969 1985.253906 L 797.792969 1939.753906 L 797.792969 1985.253906 L 787.167969 1985.253906 L 787.167969 1921.753906 L 797.667969 1921.753906 L 831.667969 1967.378906 L 831.667969 1921.753906 L 842.167969 1921.753906 Z M 842.167969 1985.253906 "/>
<path style=" stroke:none;fill-rule:nonzero;fill:rgb(0%,74.509804%,97.647059%);fill-opacity:1;" d="M 918.292969 1954.003906 L 927.542969 1954.003906 L 927.542969 1977.503906 C 924.292969 1979.941406 920.417969 1981.941406 915.917969 1983.503906 C 911.480469 1985.003906 907.167969 1985.753906 902.917969 1985.753906 C 893.480469 1985.753906 885.574219 1982.691406 879.167969 1976.503906 C 872.730469 1970.253906 869.542969 1962.597656 869.542969 1953.503906 C 869.542969 1944.441406 872.792969 1936.847656 879.292969 1930.753906 C 885.792969 1924.597656 893.855469 1921.503906 903.542969 1921.503906 C 908.042969 1921.503906 912.417969 1922.316406 916.667969 1923.878906 C 920.980469 1925.472656 924.730469 1927.628906 927.917969 1930.378906 L 921.917969 1938.253906 C 916.667969 1933.441406 910.542969 1931.003906 903.542969 1931.003906 C 897.042969 1931.003906 891.542969 1933.191406 887.042969 1937.503906 C 882.605469 1941.847656 880.417969 1947.191406 880.417969 1953.503906 C 880.417969 1959.847656 882.667969 1965.222656 887.167969 1969.628906 C 891.667969 1973.972656 897.167969 1976.128906 903.667969 1976.128906 C 908.480469 1976.128906 913.355469 1974.691406 918.292969 1971.753906 Z M 918.292969 1954.003906 "/>
<path style=" stroke:none;fill-rule:nonzero;fill:rgb(0%,74.509804%,97.647059%);fill-opacity:1;" d="M 969.140625 1975.503906 L 996.640625 1975.503906 L 996.640625 1985.253906 L 958.515625 1985.253906 L 958.515625 1921.753906 L 969.140625 1921.753906 Z M 969.140625 1975.503906 "/>
<path style=" stroke:none;fill-rule:nonzero;fill:rgb(0%,74.509804%,97.647059%);fill-opacity:1;" d="M 1033.367188 1985.253906 L 1022.742188 1985.253906 L 1022.742188 1921.753906 L 1033.367188 1921.753906 Z M 1033.367188 1985.253906 "/>
<path style=" stroke:none;fill-rule:nonzero;fill:rgb(0%,74.509804%,97.647059%);fill-opacity:1;" d="M 1086.804688 1921.253906 C 1095.054688 1921.253906 1102.460938 1923.441406 1109.054688 1927.753906 L 1104.554688 1937.253906 C 1098.054688 1933.347656 1091.835938 1931.378906 1085.929688 1931.378906 C 1082.742188 1931.378906 1080.210938 1931.972656 1078.304688 1933.128906 C 1076.460938 1934.222656 1075.554688 1935.847656 1075.554688 1938.003906 C 1075.554688 1940.097656 1076.367188 1941.878906 1078.054688 1943.378906 C 1079.804688 1944.878906 1081.929688 1945.972656 1084.429688 1946.628906 C 1086.992188 1947.316406 1089.742188 1948.191406 1092.679688 1949.253906 C 1095.679688 1950.347656 1098.429688 1951.472656 1100.929688 1952.628906 C 1103.492188 1953.816406 1105.617188 1955.628906 1107.304688 1958.128906 C 1108.960938 1960.628906 1109.804688 1963.691406 1109.804688 1967.253906 C 1109.804688 1972.847656 1107.554688 1977.316406 1103.054688 1980.628906 C 1098.617188 1983.972656 1092.929688 1985.628906 1085.929688 1985.628906 C 1080.992188 1985.628906 1076.304688 1984.722656 1071.804688 1982.878906 C 1067.304688 1981.066406 1063.335938 1978.597656 1059.929688 1975.503906 L 1064.554688 1966.253906 C 1067.710938 1969.253906 1071.210938 1971.566406 1075.054688 1973.128906 C 1078.960938 1974.722656 1082.617188 1975.503906 1086.054688 1975.503906 C 1089.804688 1975.503906 1092.710938 1974.847656 1094.804688 1973.503906 C 1096.867188 1972.191406 1097.929688 1970.316406 1097.929688 1967.878906 C 1097.929688 1965.628906 1097.054688 1963.816406 1095.304688 1962.378906 C 1093.617188 1960.878906 1091.492188 1959.816406 1088.929688 1959.128906 C 1086.429688 1958.378906 1083.679688 1957.503906 1080.679688 1956.503906 C 1077.742188 1955.503906 1074.992188 1954.472656 1072.429688 1953.378906 C 1069.929688 1952.222656 1067.835938 1950.441406 1066.179688 1948.003906 C 1064.492188 1945.503906 1063.679688 1942.503906 1063.679688 1939.003906 C 1063.679688 1933.597656 1065.742188 1929.316406 1069.929688 1926.128906 C 1074.179688 1922.878906 1079.804688 1921.253906 1086.804688 1921.253906 Z M 1086.804688 1921.253906 "/>
<path style=" stroke:none;fill-rule:nonzero;fill:rgb(0%,74.509804%,97.647059%);fill-opacity:1;" d="M 1193.136719 1985.253906 L 1182.511719 1985.253906 L 1182.511719 1958.878906 L 1148.761719 1958.878906 L 1148.761719 1985.253906 L 1138.136719 1985.253906 L 1138.136719 1921.753906 L 1148.761719 1921.753906 L 1148.761719 1949.378906 L 1182.511719 1949.378906 L 1182.511719 1921.753906 L 1193.136719 1921.753906 Z M 1193.136719 1985.253906 "/>
<path style=" stroke:none;fill-rule:nonzero;fill:rgb(0%,74.509804%,97.647059%);fill-opacity:1;" d="M 1264.863281 1921.753906 L 1290.113281 1921.753906 C 1298.113281 1921.753906 1304.269531 1923.691406 1308.613281 1927.503906 C 1313.019531 1931.253906 1315.238281 1936.566406 1315.238281 1943.378906 C 1315.238281 1950.628906 1313.019531 1956.253906 1308.613281 1960.253906 C 1304.269531 1964.191406 1298.113281 1966.128906 1290.113281 1966.128906 L 1275.488281 1966.128906 L 1275.488281 1985.253906 L 1264.863281 1985.253906 Z M 1275.488281 1931.378906 L 1275.488281 1956.503906 L 1289.738281 1956.503906 C 1299.894531 1956.503906 1304.988281 1952.222656 1304.988281 1943.628906 C 1304.988281 1935.472656 1299.894531 1931.378906 1289.738281 1931.378906 Z M 1275.488281 1931.378906 "/>
<path style=" stroke:none;fill-rule:nonzero;fill:rgb(0%,74.509804%,97.647059%);fill-opacity:1;" d="M 1381.945312 1985.253906 L 1370.320312 1966.003906 C 1369.726562 1966.097656 1368.757812 1966.128906 1367.445312 1966.128906 L 1352.320312 1966.128906 L 1352.320312 1985.253906 L 1341.695312 1985.253906 L 1341.695312 1921.753906 L 1367.445312 1921.753906 C 1375.507812 1921.753906 1381.820312 1923.691406 1386.320312 1927.503906 C 1390.820312 1931.253906 1393.070312 1936.566406 1393.070312 1943.378906 C 1393.070312 1948.472656 1391.882812 1952.816406 1389.570312 1956.378906 C 1387.320312 1959.878906 1384.070312 1962.441406 1379.820312 1964.003906 L 1394.070312 1985.253906 Z M 1352.320312 1956.503906 L 1367.445312 1956.503906 C 1377.695312 1956.503906 1382.820312 1952.222656 1382.820312 1943.628906 C 1382.820312 1935.472656 1377.695312 1931.378906 1367.445312 1931.378906 L 1352.320312 1931.378906 Z M 1352.320312 1956.503906 "/>
<path style=" stroke:none;fill-rule:nonzero;fill:rgb(0%,74.509804%,97.647059%);fill-opacity:1;" d="M 1433.6875 1985.253906 L 1423.0625 1985.253906 L 1423.0625 1921.753906 L 1433.6875 1921.753906 Z M 1433.6875 1985.253906 "/>
<path style=" stroke:none;fill-rule:nonzero;fill:rgb(0%,74.509804%,97.647059%);fill-opacity:1;" d="M 1494.5 1985.253906 L 1483.5 1985.253906 L 1458.125 1921.753906 L 1469.625 1921.753906 L 1489.25 1973.378906 L 1509 1921.753906 L 1520.25 1921.753906 Z M 1494.5 1985.253906 "/>
<path style=" stroke:none;fill-rule:nonzero;fill:rgb(0%,74.509804%,97.647059%);fill-opacity:1;" d="M 1585.621094 1970.878906 L 1553.621094 1970.878906 L 1547.496094 1985.253906 L 1536.371094 1985.253906 L 1564.371094 1921.753906 L 1575.371094 1921.753906 L 1603.121094 1985.253906 L 1591.746094 1985.253906 Z M 1581.496094 1961.378906 L 1569.496094 1933.128906 L 1557.621094 1961.378906 Z M 1581.496094 1961.378906 "/>
<path style=" stroke:none;fill-rule:nonzero;fill:rgb(0%,74.509804%,97.647059%);fill-opacity:1;" d="M 1670.722656 1931.378906 L 1650.597656 1931.378906 L 1650.597656 1985.253906 L 1639.847656 1985.253906 L 1639.847656 1931.378906 L 1619.847656 1931.378906 L 1619.847656 1921.753906 L 1670.722656 1921.753906 Z M 1670.722656 1931.378906 "/>
<path style=" stroke:none;fill-rule:nonzero;fill:rgb(0%,74.509804%,97.647059%);fill-opacity:1;" d="M 1741.03125 1931.378906 L 1706.28125 1931.378906 L 1706.28125 1948.503906 L 1737.40625 1948.503906 L 1737.40625 1958.128906 L 1706.28125 1958.128906 L 1706.28125 1975.628906 L 1742.15625 1975.628906 L 1742.15625 1985.253906 L 1695.65625 1985.253906 L 1695.65625 1921.753906 L 1741.03125 1921.753906 Z M 1741.03125 1931.378906 "/>
<path style=" stroke:none;fill-rule:nonzero;fill:rgb(0%,74.509804%,97.647059%);fill-opacity:1;" d="M 1853.515625 1931.378906 L 1833.390625 1931.378906 L 1833.390625 1985.253906 L 1822.640625 1985.253906 L 1822.640625 1931.378906 L 1802.640625 1931.378906 L 1802.640625 1921.753906 L 1853.515625 1921.753906 Z M 1853.515625 1931.378906 "/>
<path style=" stroke:none;fill-rule:nonzero;fill:rgb(0%,74.509804%,97.647059%);fill-opacity:1;" d="M 1932.449219 1921.753906 L 1932.449219 1958.878906 C 1932.449219 1967.222656 1929.980469 1973.816406 1925.074219 1978.628906 C 1920.136719 1983.378906 1913.386719 1985.753906 1904.824219 1985.753906 C 1896.230469 1985.753906 1889.480469 1983.378906 1884.574219 1978.628906 C 1879.636719 1973.816406 1877.199219 1967.222656 1877.199219 1958.878906 L 1877.199219 1921.753906 L 1887.824219 1921.753906 L 1887.824219 1958.878906 C 1887.824219 1964.222656 1889.355469 1968.441406 1892.449219 1971.503906 C 1895.511719 1974.597656 1899.699219 1976.128906 1904.949219 1976.128906 C 1910.105469 1976.128906 1914.199219 1974.628906 1917.199219 1971.628906 C 1920.199219 1968.566406 1921.699219 1964.316406 1921.699219 1958.878906 L 1921.699219 1921.753906 Z M 1932.449219 1921.753906 "/>
<path style=" stroke:none;fill-rule:nonzero;fill:rgb(0%,74.509804%,97.647059%);fill-opacity:1;" d="M 2006.90625 1931.378906 L 1986.78125 1931.378906 L 1986.78125 1985.253906 L 1976.03125 1985.253906 L 1976.03125 1931.378906 L 1956.03125 1931.378906 L 1956.03125 1921.753906 L 2006.90625 1921.753906 Z M 2006.90625 1931.378906 "/>
<path style=" stroke:none;fill-rule:nonzero;fill:rgb(0%,74.509804%,97.647059%);fill-opacity:1;" d="M 2036.214844 1930.753906 C 2042.714844 1924.597656 2050.714844 1921.503906 2060.214844 1921.503906 C 2069.714844 1921.503906 2077.652344 1924.597656 2084.089844 1930.753906 C 2090.589844 1936.847656 2093.839844 1944.441406 2093.839844 1953.503906 C 2093.839844 1962.597656 2090.589844 1970.253906 2084.089844 1976.503906 C 2077.652344 1982.691406 2069.714844 1985.753906 2060.214844 1985.753906 C 2050.714844 1985.753906 2042.714844 1982.691406 2036.214844 1976.503906 C 2029.777344 1970.253906 2026.589844 1962.597656 2026.589844 1953.503906 C 2026.589844 1944.441406 2029.777344 1936.847656 2036.214844 1930.753906 Z M 2060.339844 1931.128906 C 2053.996094 1931.128906 2048.589844 1933.316406 2044.089844 1937.628906 C 2039.652344 1941.878906 2037.464844 1947.191406 2037.464844 1953.503906 C 2037.464844 1959.753906 2039.714844 1965.097656 2044.214844 1969.503906 C 2048.714844 1973.941406 2054.089844 1976.128906 2060.339844 1976.128906 C 2066.589844 1976.128906 2071.902344 1973.941406 2076.339844 1969.503906 C 2080.746094 1965.097656 2082.964844 1959.753906 2082.964844 1953.503906 C 2082.964844 1947.191406 2080.746094 1941.878906 2076.339844 1937.628906 C 2071.902344 1933.316406 2066.589844 1931.128906 2060.339844 1931.128906 Z M 2060.339844 1931.128906 "/>
<path style=" stroke:none;fill-rule:nonzero;fill:rgb(0%,74.509804%,97.647059%);fill-opacity:1;" d="M 2161.34375 1985.253906 L 2149.71875 1966.003906 C 2149.125 1966.097656 2148.15625 1966.128906 2146.84375 1966.128906 L 2131.71875 1966.128906 L 2131.71875 1985.253906 L 2121.09375 1985.253906 L 2121.09375 1921.753906 L 2146.84375 1921.753906 C 2154.90625 1921.753906 2161.21875 1923.691406 2165.71875 1927.503906 C 2170.21875 1931.253906 2172.46875 1936.566406 2172.46875 1943.378906 C 2172.46875 1948.472656 2171.28125 1952.816406 2168.96875 1956.378906 C 2166.71875 1959.878906 2163.46875 1962.441406 2159.21875 1964.003906 L 2173.46875 1985.253906 Z M 2131.71875 1956.503906 L 2146.84375 1956.503906 C 2157.09375 1956.503906 2162.21875 1952.222656 2162.21875 1943.628906 C 2162.21875 1935.472656 2157.09375 1931.378906 2146.84375 1931.378906 L 2131.71875 1931.378906 Z M 2131.71875 1956.503906 "/>
</g>
</svg>
